<svg width="8" height="14" viewBox="0 0 8 14" fill="none" xmlns="http://www.w3.org/2000/svg">
<path d="M7.42327 9.44025C7.42327 10.1408 7.16729 10.7336 6.65534 11.2186C6.15238 11.6946 5.48325 11.982 4.64796 12.0808V13.1182C4.64796 13.2709 4.60305 13.3921 4.51324 13.482C4.4324 13.5718 4.32013 13.6167 4.17643 13.6167C4.03272 13.6167 3.91596 13.5718 3.82615 13.482C3.74531 13.3921 3.7049 13.2709 3.7049 13.1182V12.0943C3.15702 12.0584 2.62711 11.9506 2.11516 11.771C1.60321 11.5913 1.1676 11.3354 0.808341 11.003C0.664636 10.8863 0.592784 10.7336 0.592784 10.545C0.592784 10.4192 0.62871 10.3115 0.700562 10.2216C0.772415 10.1229 0.85774 10.0735 0.956537 10.0735C1.06432 10.0735 1.19455 10.1229 1.34724 10.2216C2.24539 10.8504 3.14804 11.1647 4.05518 11.1647C4.76472 11.1647 5.31709 11.0165 5.71228 10.7201C6.10747 10.4237 6.30506 10.0016 6.30506 9.45372C6.30506 9.13039 6.20177 8.86992 5.9952 8.67233C5.7976 8.46575 5.54163 8.30857 5.22727 8.2008C4.9219 8.08404 4.50426 7.96278 3.97434 7.83704C3.29175 7.66639 2.73938 7.49574 2.31724 7.32509C1.90409 7.15444 1.54932 6.89398 1.25293 6.5437C0.956537 6.19341 0.808341 5.72188 0.808341 5.1291C0.808341 4.64409 0.929592 4.20849 1.17209 3.82228C1.4146 3.42709 1.75141 3.10825 2.18252 2.86574C2.62262 2.62324 3.12559 2.47505 3.69143 2.42116V1.38378C3.69143 1.24008 3.73633 1.12332 3.82615 1.0335C3.91596 0.934706 4.02823 0.885307 4.16296 0.885307C4.30666 0.885307 4.41893 0.930215 4.49977 1.02003C4.58958 1.10985 4.63449 1.2311 4.63449 1.38378V2.42116C5.11051 2.46606 5.56857 2.57833 6.00867 2.75796C6.44877 2.9376 6.8215 3.18459 7.12688 3.49894C7.27956 3.62469 7.35591 3.77737 7.35591 3.957C7.35591 4.08275 7.31549 4.19502 7.23465 4.29381C7.1628 4.38363 7.07748 4.42854 6.97868 4.42854C6.86192 4.42854 6.73618 4.37914 6.60145 4.28034C6.20626 3.957 5.82006 3.71899 5.44283 3.56631C5.07459 3.41362 4.64347 3.33728 4.14949 3.33728C3.46689 3.33728 2.9235 3.49445 2.51933 3.80881C2.12414 4.12316 1.92655 4.54979 1.92655 5.08868C1.92655 5.46591 2.03433 5.76679 2.24988 5.99133C2.47442 6.21587 2.74836 6.39101 3.0717 6.51675C3.39503 6.63351 3.83962 6.76374 4.40546 6.90745C5.06111 7.06912 5.58654 7.23079 5.98173 7.39245C6.3859 7.55412 6.7272 7.80112 7.00562 8.13343C7.28405 8.45677 7.42327 8.89238 7.42327 9.44025Z" fill="#ABABAB"/>
</svg>
