<svg width="15" height="8" viewBox="0 0 15 8" fill="none" xmlns="http://www.w3.org/2000/svg">
<path d="M14.2079 1.17008C14.2084 1.31948 14.1768 1.46709 14.1154 1.60206C14.0541 1.73704 13.9645 1.85596 13.8533 1.95008L8.10332 6.78008C7.93185 6.92716 7.71676 7.00757 7.49478 7.00757C7.27281 7.00757 7.05772 6.92716 6.88624 6.78008L1.13624 1.78008C0.940531 1.61034 0.817458 1.36643 0.794094 1.10201C0.77073 0.837579 0.848989 0.574298 1.01166 0.370082C1.17432 0.165865 1.40807 0.037441 1.66148 0.0130613C1.91489 -0.0113184 2.1672 0.070343 2.36291 0.240081L7.49957 4.71008L12.6362 0.390082C12.7769 0.267798 12.9482 0.190121 13.1299 0.166242C13.3115 0.142362 13.4959 0.173279 13.6613 0.255335C13.8266 0.337391 13.9659 0.467151 14.0628 0.629261C14.1597 0.791371 14.21 0.979047 14.2079 1.17008Z" fill="#B6B6B6"/>
</svg>
