<svg width="59" height="48" viewBox="0 0 59 48" fill="none" xmlns="http://www.w3.org/2000/svg">
<path fill-rule="evenodd" clip-rule="evenodd" d="M0 2C0 0.89543 0.895431 0 2 0H23.7021C24.8067 0 25.7021 0.895431 25.7021 2V22.9233C25.7021 23.295 25.6007 23.6431 25.424 23.9413V31.9325H24.424V24.789C24.2001 24.8757 23.9566 24.9233 23.7021 24.9233H14.5201V28.8171V31.9325C14.5201 32.9997 13.9786 34.5027 12.4656 35.7285C11.0172 36.902 8.70691 37.8015 5.17383 37.8791V46.245C8.47847 46.3012 13.1752 45.6811 17.1001 43.6582C21.1927 41.549 24.423 37.9354 24.423 31.9331H25.423C25.423 38.3924 21.9032 42.3078 17.5583 44.5471C13.4536 46.6626 8.59223 47.3007 5.17383 47.2451V47.5096H4.17383V37.3845V36.8845H4.67383C8.33408 36.8845 10.5478 35.9952 11.8361 34.9515C13.1269 33.9057 13.5201 32.6827 13.5201 31.9325V28.8171V24.9233H2C0.895429 24.9233 0 24.0278 0 22.9233V2Z" fill="#1ABC9C"/>
<path fill-rule="evenodd" clip-rule="evenodd" d="M33.0303 2C33.0303 0.89543 33.9257 0 35.0303 0H56.7324C57.837 0 58.7324 0.895431 58.7324 2V22.9233C58.7324 23.295 58.631 23.6431 58.4543 23.9413V31.9325H57.4543V24.789C57.2303 24.8757 56.9869 24.9233 56.7324 24.9233H47.5503V28.8171V31.9325C47.5503 32.9997 47.0088 34.5027 45.4958 35.7285C44.0474 36.902 41.7372 37.8015 38.2041 37.8791V46.245C41.5087 46.3012 46.2055 45.6811 50.1304 43.6582C54.223 41.549 57.4533 37.9354 57.4533 31.9331H58.4533C58.4533 38.3924 54.9335 42.3078 50.5885 44.5471C46.4838 46.6626 41.6225 47.3007 38.2041 47.2451V47.5096H37.2041V37.3845V36.8845H37.7041C41.3644 36.8845 43.5781 35.9952 44.8663 34.9515C46.1572 33.9057 46.5503 32.6827 46.5503 31.9325V28.8171V24.9233H35.0303C33.9257 24.9233 33.0303 24.0278 33.0303 22.9233V2Z" fill="#1ABC9C"/>
</svg>
