<svg width="34" height="34" viewBox="0 0 34 34" fill="none" xmlns="http://www.w3.org/2000/svg">
<circle cx="17" cy="17" r="16.75" fill="#215269" stroke="white" stroke-width="0.5"/>
<path d="M22.6637 15.4922C22.672 15.6015 22.672 15.7109 22.672 15.8203C22.672 19.1562 19.9912 23 15.0914 23C13.5819 23 12.1796 22.5859 11 21.8672C11.2145 21.8906 11.4207 21.8984 11.6434 21.8984C12.8889 21.8984 14.0355 21.5 14.9512 20.8203C13.7798 20.7969 12.7982 20.0703 12.46 19.0703C12.625 19.0937 12.79 19.1094 12.9632 19.1094C13.2024 19.1094 13.4416 19.0781 13.6644 19.0234C12.4435 18.789 11.5279 17.7734 11.5279 16.5469V16.5156C11.8826 16.7031 12.2951 16.8203 12.7322 16.8359C12.0146 16.3828 11.5444 15.6094 11.5444 14.7344C11.5444 14.2656 11.6764 13.8359 11.9073 13.4609C13.2189 14.9922 15.1904 15.9922 17.401 16.1016C17.3598 15.9141 17.335 15.7188 17.335 15.5234C17.335 14.1328 18.5228 13 19.9994 13C20.7665 13 21.4594 13.3047 21.9461 13.7969C22.5482 13.6875 23.1256 13.4766 23.6371 13.1875C23.4391 13.7735 23.0184 14.2656 22.4657 14.5781C23.0019 14.5235 23.5216 14.3828 24 14.1875C23.6371 14.6875 23.1834 15.1328 22.6637 15.4922V15.4922Z" fill="white"/>
</svg>
