<svg width="17" height="20" viewBox="0 0 17 20" fill="none" xmlns="http://www.w3.org/2000/svg">
<ellipse cx="8.16639" cy="5.39951" rx="4.51795" ry="4.30283" stroke="#727272" stroke-width="1.70577" stroke-linecap="round" stroke-linejoin="round"/>
<path fill-rule="evenodd" clip-rule="evenodd" d="M1.00002 15.6858C0.998801 15.3833 1.06983 15.0845 1.20774 14.812C1.64049 13.9877 2.86086 13.5508 3.8735 13.353C4.60382 13.2046 5.34422 13.1054 6.0892 13.0563C7.46847 12.9409 8.85571 12.9409 10.235 13.0563C10.9799 13.106 11.7203 13.2051 12.4507 13.353C13.4633 13.5508 14.6837 13.9465 15.1164 14.812C15.3938 15.3675 15.3938 16.0123 15.1164 16.5678C14.6837 17.4333 13.4633 17.829 12.4507 18.0185C11.7212 18.1731 10.9805 18.2751 10.235 18.3235C9.11237 18.4142 7.98451 18.4307 6.8595 18.373C6.59985 18.373 6.34885 18.373 6.0892 18.3235C5.34642 18.2757 4.60858 18.1737 3.88215 18.0185C2.86086 17.829 1.64915 17.4333 1.20774 16.5678C1.07054 16.2921 0.999576 15.9908 1.00002 15.6858Z" stroke="#727272" stroke-width="1.70577" stroke-linecap="round" stroke-linejoin="round"/>
</svg>
