<svg width="19" height="19" viewBox="0 0 19 19" fill="none" xmlns="http://www.w3.org/2000/svg">
<path d="M19 17.2187C19 18.2025 18.2025 19 17.2188 19H1.78125C0.79748 19 0 18.2025 0 17.2187V7.44874C3.28126e-06 7.17864 0.0614342 6.91207 0.179646 6.66921C0.297857 6.42634 0.469753 6.21354 0.68233 6.0469C1.60684 5.32219 2.37084 4.73453 6.77569 1.53771C7.40005 1.08249 8.63895 -0.0128712 9.5 0.000117093C10.3609 -0.0130196 11.6002 1.08267 12.2243 1.53767C16.6287 4.73416 17.3938 5.32264 18.3177 6.0469C18.5302 6.21354 18.7021 6.42634 18.8204 6.66921C18.9386 6.91207 19 7.17864 19 7.44874V17.2187ZM16.5632 9.92286C16.4681 9.78452 16.2774 9.75235 16.1424 9.8521C15.2946 10.4782 14.0842 11.3626 12.2243 12.7124C11.5999 13.1676 10.361 14.2629 9.5 14.2499C8.63865 14.2627 7.40113 13.1684 6.77569 12.7124C4.91599 11.3628 3.70548 10.4783 2.85761 9.8521C2.72257 9.75235 2.53194 9.78452 2.43682 9.92286L2.10017 10.4126C2.05653 10.476 2.03926 10.5539 2.05199 10.6298C2.06472 10.7058 2.10647 10.7738 2.16841 10.8195C3.01773 11.4466 4.22628 12.3295 6.07614 13.6721C6.8285 14.2206 8.17371 15.4464 9.5 15.4375C10.8257 15.4464 12.1704 14.2214 12.9238 13.6721C14.7737 12.3295 15.9823 11.4466 16.8316 10.8195C16.8935 10.7738 16.9352 10.7058 16.948 10.6298C16.9607 10.5539 16.9434 10.476 16.8998 10.4126L16.5632 9.92286Z" fill="white"/>
</svg>
