<svg width="17" height="26" viewBox="0 0 17 26" fill="none" xmlns="http://www.w3.org/2000/svg">
<path d="M2.55 0H14.45C15.8578 0 17 1.0918 17 2.4375V23.5625C17 24.9082 15.8578 26 14.45 26H2.55C1.14219 26 -4.76837e-07 24.9082 -4.76837e-07 23.5625V2.4375C-4.76837e-07 1.0918 1.14219 0 2.55 0ZM8.5 24.375C9.44031 24.375 10.2 23.6488 10.2 22.75C10.2 21.8512 9.44031 21.125 8.5 21.125C7.55969 21.125 6.8 21.8512 6.8 22.75C6.8 23.6488 7.55969 24.375 8.5 24.375ZM2.55 18.8906C2.55 19.2258 2.83687 19.5 3.1875 19.5H13.8125C14.1631 19.5 14.45 19.2258 14.45 18.8906V3.04688C14.45 2.71172 14.1631 2.4375 13.8125 2.4375H3.1875C2.83687 2.4375 2.55 2.71172 2.55 3.04688V18.8906Z" fill="white"/>
</svg>
