<svg width="16" height="16" viewBox="0 0 16 16" fill="none" xmlns="http://www.w3.org/2000/svg">
<path d="M2.83207 14.7534L13.2385 6.27212L13.1475 12.723C13.1456 12.8726 13.1728 13.021 13.2278 13.1599C13.2827 13.2988 13.3642 13.4254 13.4678 13.5325C13.6768 13.7489 13.9626 13.8727 14.2622 13.8768C14.5619 13.8808 14.8508 13.7648 15.0656 13.5541C15.2803 13.3434 15.4032 13.0555 15.4072 12.7535L15.5364 3.87283C15.5321 3.80658 15.5229 3.74074 15.5089 3.67584C15.4734 3.63164 15.496 3.56935 15.4781 3.51084C15.4365 3.37705 15.3707 3.25216 15.284 3.14248C15.1957 3.03414 15.0883 2.94319 14.9671 2.87423C14.9317 2.83002 14.8665 2.83925 14.8135 2.80934C14.7534 2.78203 14.6914 2.75922 14.628 2.74107L5.98287 1.01154C5.82026 0.978964 5.65253 0.982895 5.4916 1.02305C5.33067 1.06321 5.1805 1.1386 5.05176 1.24387C4.84642 1.41055 4.70548 1.64443 4.65342 1.90491C4.62415 2.05154 4.62387 2.20256 4.6526 2.34931C4.68134 2.49605 4.73852 2.63565 4.82087 2.76009C4.90322 2.88453 5.00913 2.99138 5.13253 3.07452C5.25592 3.15765 5.39438 3.21544 5.53997 3.24457L11.8192 4.50375L1.41275 12.985C1.18004 13.1747 1.03163 13.4497 1.00016 13.7497C0.968697 14.0496 1.05676 14.3498 1.24497 14.5843C1.43318 14.8188 1.70613 14.9684 2.00377 15.0001C2.30141 15.0318 2.59936 14.9431 2.83207 14.7534Z" fill="#FF6000"/>
</svg>
