<svg width="47" height="20" viewBox="0 0 47 20" fill="none" xmlns="http://www.w3.org/2000/svg">
<path d="M20.9821 0.000102251H45.3413C45.5705 -0.0025117 45.7977 0.0450186 46.0083 0.139629C46.2188 0.23424 46.408 0.373831 46.5637 0.549403C46.7194 0.724976 46.838 0.932634 46.9121 1.15899C46.9861 1.38535 47.0139 1.62538 46.9935 1.86361L45.8117 18.1364C45.7845 18.5329 45.6443 18.9119 45.4092 19.2247C45.1741 19.5375 44.8548 19.7699 44.4922 19.8922C44.2991 19.9621 44.0962 19.9985 43.8917 19.9999H19.5325C19.3033 20.0025 19.0761 19.955 18.8655 19.8604C18.655 19.7658 18.4658 19.6262 18.3101 19.4506C18.1545 19.275 18.0358 19.0674 17.9617 18.841C17.8877 18.6147 17.8599 18.3746 17.8803 18.1364L19.0621 1.86361C19.1053 1.36194 19.3242 0.894489 19.677 0.550682C20.0298 0.206874 20.4918 0.0108476 20.9744 0.000102251H20.9821ZM14.9926 2.39433V4.48529H1.00206C0.736297 4.48529 0.481419 4.37514 0.293496 4.17908C0.105574 3.98301 0 3.71709 0 3.43981C0 3.16253 0.105574 2.89661 0.293496 2.70055C0.481419 2.50448 0.736297 2.39433 1.00206 2.39433H14.9926ZM13.8453 15.5147V17.6017H8.37982C8.24328 17.6105 8.10645 17.59 7.97777 17.5416C7.84909 17.4931 7.73128 17.4177 7.6316 17.3199C7.53193 17.2222 7.45249 17.1042 7.39819 16.9732C7.3439 16.8421 7.31588 16.7009 7.31588 16.5582C7.31588 16.4155 7.3439 16.2742 7.39819 16.1432C7.45249 16.0122 7.53193 15.8942 7.6316 15.7964C7.73128 15.6987 7.84909 15.6233 7.97777 15.5748C8.10645 15.5263 8.24328 15.5059 8.37982 15.5147H13.8453ZM14.419 8.95452V11.0415H4.38688C4.25034 11.0503 4.11351 11.0299 3.98483 10.9814C3.85615 10.9329 3.73834 10.8575 3.63866 10.7598C3.53899 10.662 3.45955 10.544 3.40525 10.413C3.35095 10.282 3.32294 10.1407 3.32294 9.998C3.32294 9.85527 3.35095 9.71405 3.40525 9.58304C3.45955 9.45204 3.53899 9.33402 3.63866 9.23626C3.73834 9.13849 3.85615 9.06306 3.98483 9.01461C4.11351 8.96616 4.25034 8.94571 4.38688 8.95452H14.419ZM19.5899 16.9353L28.1686 9.1301L20.6111 2.87717L19.5937 16.9433L19.5899 16.9353ZM29.3619 10.1955L20.4887 18.304H43.1268L35.7988 10.2035L32.9953 12.5459C32.845 12.6704 32.6594 12.7391 32.4675 12.7414C32.283 12.7444 32.1037 12.6778 31.9626 12.5538L29.3619 10.1955ZM37.1221 9.11014L44.2704 16.9991L45.2992 2.79337L37.1221 9.11014ZM21.877 1.69601L32.5861 10.8021L44.1327 1.69601H21.877Z" fill="black"/>
</svg>
