<svg width="14" height="14" viewBox="0 0 14 14" fill="none" xmlns="http://www.w3.org/2000/svg">
<path d="M14 12.6875C14 13.4123 13.4124 14 12.6875 14H1.3125C0.587617 14 0 13.4123 0 12.6875V5.48849C2.41777e-06 5.28947 0.0452673 5.09305 0.132371 4.9141C0.219474 4.73514 0.346134 4.57834 0.50277 4.45555C1.18398 3.92156 1.74694 3.48854 4.99261 1.13299C5.45267 0.797561 6.36554 -0.00954507 7 2.5244e-05C7.63432 -0.00965445 8.54755 0.797698 9.00739 1.13296C12.2527 3.48827 12.8165 3.92189 13.4972 4.45555C13.6539 4.57834 13.7805 4.73514 13.8676 4.9141C13.9547 5.09305 14 5.28947 14 5.48849V12.6875ZM12.2044 7.31153C12.1344 7.20959 11.9939 7.18588 11.8944 7.25938C11.2697 7.72076 10.3779 8.37241 9.00739 9.36701C8.54733 9.70241 7.63446 10.5095 7 10.4999C6.36532 10.5093 5.45346 9.70299 4.99261 9.36701C3.62231 8.37252 2.73036 7.72081 2.10561 7.25938C2.0061 7.18588 1.86564 7.20959 1.79555 7.31153L1.54749 7.67236C1.51534 7.7191 1.50261 7.77651 1.51199 7.83247C1.52137 7.88842 1.55213 7.93854 1.59778 7.97224C2.22359 8.43432 3.1141 9.08485 4.47716 10.0741C5.03152 10.4783 6.02273 11.3815 7 11.3749C7.97683 11.3815 8.96768 10.4788 9.52282 10.0741C10.8859 9.08483 11.7764 8.43429 12.4022 7.97224C12.4478 7.93854 12.4786 7.88842 12.488 7.83247C12.4974 7.77651 12.4846 7.7191 12.4525 7.67236L12.2044 7.31153Z" fill="#B5B5B5"/>
</svg>
