<svg width="34" height="34" viewBox="0 0 34 34" fill="none" xmlns="http://www.w3.org/2000/svg">
<circle cx="17" cy="17" r="16.75" fill="#215269" stroke="white" stroke-width="0.5"/>
<path d="M18.844 12.1501C18.2995 12.1482 17.76 12.2548 17.2563 12.4637C16.7526 12.6727 16.2947 12.9799 15.9086 13.3678C15.5226 13.7558 15.2161 14.2168 15.0067 14.7245C14.7972 15.2322 14.6889 15.7766 14.688 16.3266V20.5462C14.688 20.7175 14.7554 20.8817 14.8753 21.0028C14.9952 21.124 15.1578 21.192 15.3274 21.192H16.8193C16.9889 21.192 17.1515 21.124 17.2714 21.0028C17.3913 20.8817 17.4587 20.7175 17.4587 20.5462V16.3266C17.4586 16.131 17.4992 15.9375 17.5781 15.7588C17.6569 15.5802 17.7721 15.4203 17.9163 15.2896C18.0604 15.1589 18.2301 15.0604 18.4145 15.0004C18.5988 14.9405 18.7936 14.9204 18.9861 14.9416C19.3314 14.9855 19.6487 15.1559 19.8779 15.4205C20.107 15.685 20.2321 16.0253 20.2294 16.3768V20.5462C20.2294 20.7175 20.2968 20.8817 20.4167 21.0028C20.5366 21.124 20.6992 21.192 20.8688 21.192H22.3607C22.5303 21.192 22.6929 21.124 22.8128 21.0028C22.9327 20.8817 23.0001 20.7175 23.0001 20.5462V16.3266C22.9992 15.7766 22.8909 15.2322 22.6814 14.7245C22.472 14.2168 22.1655 13.7558 21.7794 13.3678C21.3934 12.9799 20.9355 12.6727 20.4318 12.4637C19.9281 12.2548 19.3886 12.1482 18.844 12.1501Z" fill="white"/>
<path d="M12.7699 12.7961H10.8517C10.4985 12.7961 10.2123 13.0852 10.2123 13.4419V20.5463C10.2123 20.903 10.4985 21.1921 10.8517 21.1921H12.7699C13.123 21.1921 13.4092 20.903 13.4092 20.5463V13.4419C13.4092 13.0852 13.123 12.7961 12.7699 12.7961Z" fill="white"/>
</svg>
