<svg width="34" height="34" viewBox="0 0 34 34" fill="none" xmlns="http://www.w3.org/2000/svg">
<circle cx="17" cy="17" r="16.75" fill="#215269" stroke="white" stroke-width="0.5"/>
<path d="M17.5015 14.167C15.6569 14.167 14.1692 15.6551 14.1692 17.5C14.1692 19.3449 15.6569 20.833 17.5015 20.833C19.346 20.833 20.8337 19.3449 20.8337 17.5C20.8337 15.6551 19.346 14.167 17.5015 14.167ZM17.5015 19.6669C16.3095 19.6669 15.335 18.6951 15.335 17.5C15.335 16.3049 16.3066 15.3331 17.5015 15.3331C18.6963 15.3331 19.6679 16.3049 19.6679 17.5C19.6679 18.6951 18.6934 19.6669 17.5015 19.6669V19.6669ZM21.7473 14.0306C21.7473 14.4628 21.3993 14.808 20.9701 14.808C20.5379 14.808 20.1928 14.4599 20.1928 14.0306C20.1928 13.6013 20.5408 13.2532 20.9701 13.2532C21.3993 13.2532 21.7473 13.6013 21.7473 14.0306ZM23.9543 14.8196C23.905 13.7783 23.6672 12.8558 22.9045 12.0958C22.1446 11.3358 21.2224 11.0979 20.1812 11.0457C19.1081 10.9848 15.8919 10.9848 14.8188 11.0457C13.7805 11.095 12.8583 11.3329 12.0955 12.0929C11.3328 12.8529 11.0979 13.7754 11.0457 14.8167C10.9848 15.89 10.9848 19.1071 11.0457 20.1804C11.095 21.2217 11.3328 22.1442 12.0955 22.9042C12.8583 23.6642 13.7776 23.9021 14.8188 23.9543C15.8919 24.0152 19.1081 24.0152 20.1812 23.9543C21.2224 23.905 22.1446 23.6671 22.9045 22.9042C23.6643 22.1442 23.9021 21.2217 23.9543 20.1804C24.0152 19.1071 24.0152 15.8929 23.9543 14.8196V14.8196ZM22.568 21.332C22.3418 21.9005 21.9039 22.3386 21.3326 22.5677C20.477 22.9071 18.4469 22.8288 17.5015 22.8288C16.556 22.8288 14.523 22.9042 13.6703 22.5677C13.1019 22.3415 12.664 21.9034 12.4349 21.332C12.0955 20.4762 12.1738 18.4457 12.1738 17.5C12.1738 16.5543 12.0984 14.5209 12.4349 13.668C12.6611 13.0995 13.099 12.6614 13.6703 12.4323C14.5259 12.0929 16.556 12.1712 17.5015 12.1712C18.4469 12.1712 20.4799 12.0958 21.3326 12.4323C21.901 12.6585 22.3389 13.0966 22.568 13.668C22.9074 14.5238 22.8291 16.5543 22.8291 17.5C22.8291 18.4457 22.9074 20.4791 22.568 21.332Z" fill="white"/>
</svg>
