<svg width="20" height="28" viewBox="0 0 20 28" fill="none" xmlns="http://www.w3.org/2000/svg">
<g clip-path="url(#clip0_1_129)">
<path d="M8.88257 26.5174C1.39064 15.6563 0 14.5416 0 10.55C0 5.08239 4.43236 0.650024 9.9 0.650024C15.3676 0.650024 19.8 5.08239 19.8 10.55C19.8 14.5416 18.4094 15.6563 10.9174 26.5174C10.4258 27.2276 9.37417 27.2276 8.88257 26.5174ZM9.9 14.675C12.1782 14.675 14.025 12.8282 14.025 10.55C14.025 8.27184 12.1782 6.42502 9.9 6.42502C7.62181 6.42502 5.775 8.27184 5.775 10.55C5.775 12.8282 7.62181 14.675 9.9 14.675Z" fill="white"/>
</g>
<defs>
<clipPath id="clip0_1_129">
<rect width="19.8" height="26.4" fill="white" transform="translate(0 0.650024)"/>
</clipPath>
</defs>
</svg>
