<svg width="14" height="14" viewBox="0 0 14 14" fill="none" xmlns="http://www.w3.org/2000/svg">
<g clip-path="url(#clip0_1_110)">
<path d="M0.508665 0.67257L3.35242 0.0163205C3.6614 -0.0547732 3.97859 0.106555 4.10437 0.396398L5.41687 3.4589C5.53172 3.72687 5.45515 4.04132 5.2282 4.22452L3.57117 5.58077C4.55554 7.67804 6.27547 9.42256 8.41648 10.4261L9.77273 8.76905C9.95867 8.5421 10.2704 8.46553 10.5384 8.58038L13.6009 9.89288C13.8934 10.0214 14.0548 10.3386 13.9837 10.6476L13.3274 13.4913C13.2591 13.7866 12.9966 13.9999 12.6876 13.9999C5.68484 13.9999 6.93796e-05 8.32608 6.93796e-05 1.31241C6.93796e-05 1.00616 0.210617 0.740929 0.508665 0.67257Z" fill="#B5B5B5"/>
</g>
<defs>
<clipPath id="clip0_1_110">
<rect width="14" height="14" fill="white" transform="matrix(-1 0 0 1 14 0)"/>
</clipPath>
</defs>
</svg>
