<svg width="14" height="14" viewBox="0 0 14 14" fill="none" xmlns="http://www.w3.org/2000/svg">
<path d="M13.5043 12.7378L11.2128 10.4974L11.159 10.4157C11.0592 10.3163 10.9226 10.2603 10.7801 10.2603C10.6376 10.2603 10.501 10.3163 10.4011 10.4157C8.45364 12.2024 5.45275 12.2995 3.38865 10.6426C1.32456 8.98578 0.837763 6.08907 2.25111 3.87361C3.66445 1.65814 6.53937 0.811394 8.96922 1.89492C11.3991 2.97845 12.6299 5.65602 11.8453 8.15189C11.7888 8.3322 11.835 8.52828 11.9665 8.66627C12.0979 8.80426 12.2947 8.8632 12.4827 8.82089C12.6706 8.77857 12.8212 8.64143 12.8777 8.46112C13.8156 5.49926 12.3991 2.31187 9.54473 0.960868C6.69031 -0.39013 3.25454 0.500712 1.46002 3.05711C-0.334502 5.6135 0.0507704 9.06826 2.36661 11.1865C4.68244 13.3047 8.23384 13.4508 10.7234 11.5301L12.7524 13.5138C12.962 13.7178 13.3008 13.7178 13.5103 13.5138C13.7197 13.307 13.7197 12.9739 13.5103 12.767L13.5043 12.7378Z" fill="#ABABAB"/>
</svg>
