<svg width="117" height="117" viewBox="0 0 117 117" fill="none" xmlns="http://www.w3.org/2000/svg">
<g filter="url(#filter0_d_3_225)">
<circle cx="58.5" cy="58.5" r="28.5" fill="#FF8E18"/>
</g>
<ellipse cx="58.6093" cy="53.1535" rx="5.35364" ry="5.15353" stroke="white" stroke-width="1.67925" stroke-linecap="round" stroke-linejoin="round"/>
<path fill-rule="evenodd" clip-rule="evenodd" d="M50 65.9965C49.9986 65.5514 50.0829 65.1117 50.2465 64.7108C50.7601 63.4979 52.2084 62.8551 53.4102 62.564C54.2769 62.3456 55.1557 62.1997 56.0398 62.1273C57.6767 61.9576 59.323 61.9576 60.9599 62.1273C61.844 62.2005 62.7226 62.3464 63.5895 62.564C64.7913 62.8551 66.2396 63.4373 66.7532 64.7108C67.0823 65.5281 67.0823 66.477 66.7532 67.2943C66.2396 68.5678 64.7913 69.15 63.5895 69.4289C62.7238 69.6564 61.8447 69.8064 60.9599 69.8777C59.6276 70.0111 58.2891 70.0354 56.954 69.9505C56.6458 69.9505 56.3479 69.9505 56.0398 69.8777C55.1583 69.8073 54.2826 69.6573 53.4205 69.4289C52.2084 69.15 50.7704 68.5678 50.2465 67.2943C50.0837 66.8887 49.9995 66.4453 50 65.9965Z" stroke="white" stroke-width="1.67925" stroke-linecap="round" stroke-linejoin="round"/>
<defs>
<filter id="filter0_d_3_225" x="0" y="0" width="117" height="117" filterUnits="userSpaceOnUse" color-interpolation-filters="sRGB">
<feFlood flood-opacity="0" result="BackgroundImageFix"/>
<feColorMatrix in="SourceAlpha" type="matrix" values="0 0 0 0 0 0 0 0 0 0 0 0 0 0 0 0 0 0 127 0" result="hardAlpha"/>
<feMorphology radius="10" operator="dilate" in="SourceAlpha" result="effect1_dropShadow_3_225"/>
<feOffset/>
<feGaussianBlur stdDeviation="10"/>
<feComposite in2="hardAlpha" operator="out"/>
<feColorMatrix type="matrix" values="0 0 0 0 0 0 0 0 0 0 0 0 0 0 0 0 0 0 0.02 0"/>
<feBlend mode="normal" in2="BackgroundImageFix" result="effect1_dropShadow_3_225"/>
<feBlend mode="normal" in="SourceGraphic" in2="effect1_dropShadow_3_225" result="shape"/>
</filter>
</defs>
</svg>
